# xmcd
#
# Track frame offsets:
#	150
#	15730
#	32470
#	50286
#	66352
#	87313
#	102969
#	121735
#	137625
#	154324
#	170090
#	184991
#	201523
#
# Disc length: 2905 seconds
#
# Revision: 4
# Processed by: cddbd v1.5.2PL0 Copyright (c) Steve Scherf et al.
# Submitted via: audiograbber 1.83.01
#
DISCID=b40b570d
DTITLE=Thomas Anders - Pures Leben
DYEAR=2017
DGENRE=Pop
TTITLE0=Thomas Anders - Der beste Tag meines Lebens
TTITLE1=Thomas Anders - Sternenregen
TTITLE2=Thomas Anders - Das Lied das Leben heisst
TTITLE3=Thomas Anders - Feuerwerk
TTITLE4=Thomas Anders - Sie und ich und du
TTITLE5=Thomas Anders - Unendlich
TTITLE6=Thomas Anders - Schwerelos
TTITLE7=Thomas Anders - Traumtänzer
TTITLE8=Thomas Anders - Zurück zu dir
TTITLE9=Thomas Anders - Träume
TTITLE10=Thomas Anders - Ein Augenblick der alles dreht
TTITLE11=Thomas Anders - Odyssee
TTITLE12=Thomas Anders - Fliegen
EXTD=
EXTT0=
EXTT1=
EXTT2=
EXTT3=
EXTT4=
EXTT5=
EXTT6=
EXTT7=
EXTT8=
EXTT9=
EXTT10=
EXTT11=
EXTT12=
PLAYORDER=
